<svg data-v-423bf9ae="" xmlns="http://www.w3.org/2000/svg" viewBox="0 0 266 90" class="iconLeftSlogan"><!----><!----><!----><g data-v-423bf9ae="" id="9df3b1bd-ba60-4f35-9d3b-71bad9a4a1a9" fill="black" transform="matrix(5.444646343017975,0,0,5.444646343017975,112.12340498720248,-15.680581614144934)"><path d="M1.22 9.10C2.87 8.11 4.41 5.07 4.41 3.77C4.41 3.37 4.27 2.88 3.96 2.88C2.81 2.88-0.39 9.32-0.39 12.14C-0.39 13.22 0.08 13.90 1.05 13.90C2.03 13.90 2.77 13.20 3.28 12.35C3.42 12.38 3.57 12.39 3.72 12.39C4.44 12.39 5.19 12.08 5.73 10.79L5.56 10.61C5.24 11.26 4.76 12.14 3.77 12.14C3.64 12.14 3.51 12.12 3.40 12.10C3.71 11.48 3.89 10.81 3.89 10.19C3.89 9.35 3.54 8.90 3.01 8.90C2.38 8.90 1.83 9.49 1.83 10.39C1.83 11.09 2.17 11.84 2.86 12.19C2.49 12.88 1.85 13.37 1.32 13.37C0.76 13.37 0.55 12.82 0.55 12.05C0.55 10.88 1.05 9.41 1.22 9.10ZM3.88 4.02C3.92 4.02 3.93 4.05 3.93 4.13C3.93 4.84 2.66 7.52 1.37 8.55C2.02 6.41 3.57 4.02 3.88 4.02ZM2.32 10.46C2.32 9.88 2.58 9.45 2.86 9.45C3.12 9.45 3.32 9.86 3.32 10.50C3.32 11.00 3.19 11.49 3.00 11.91C2.51 11.59 2.32 10.96 2.32 10.46ZM11.21 10.64C10.85 11.41 10.50 11.70 10.11 11.70C9.62 11.70 9.13 11.26 9.13 10.54C9.13 9.80 9.67 9.13 9.67 8.78C9.67 8.61 9.55 8.23 9.20 8.23C9.16 8.23 9.13 8.23 9.10 8.25C9.02 8.08 8.85 7.95 8.50 7.95C6.83 7.95 5.11 10.63 5.11 12.11C5.11 12.82 5.52 13.33 6.23 13.33C7.21 13.33 8.09 12.38 8.68 11.00C8.96 11.65 9.48 11.98 10.00 11.98C10.46 11.98 10.99 11.72 11.40 10.78ZM6.54 12.73C6.20 12.73 6.01 12.45 6.01 12.01C6.01 10.95 7.14 8.50 8.72 8.50C8.57 8.74 8.46 9.14 8.46 9.77C8.46 10.09 8.48 10.35 8.54 10.57C8.04 11.77 7.17 12.73 6.54 12.73ZM16.88 10.64C16.52 11.41 16.17 11.70 15.78 11.70C15.29 11.70 14.80 11.26 14.80 10.54C14.80 9.80 15.34 9.13 15.34 8.78C15.34 8.61 15.22 8.23 14.87 8.23C14.83 8.23 14.80 8.23 14.77 8.25C14.69 8.08 14.52 7.95 14.17 7.95C12.50 7.95 10.78 10.63 10.78 12.11C10.78 12.82 11.19 13.33 11.90 13.33C12.88 13.33 13.76 12.38 14.35 11.00C14.63 11.65 15.15 11.98 15.67 11.98C16.13 11.98 16.66 11.72 17.07 10.78ZM12.21 12.73C11.87 12.73 11.68 12.45 11.68 12.01C11.68 10.95 12.81 8.50 14.39 8.50C14.24 8.74 14.13 9.14 14.13 9.77C14.13 10.09 14.15 10.35 14.21 10.57C13.71 11.77 12.84 12.73 12.21 12.73ZM19.35 10.89C19.35 11.75 19.71 13.41 20.78 13.41C21.76 13.41 22.86 12.11 23.27 10.74L23.13 10.60C22.55 11.87 21.85 12.88 21.06 12.88C20.31 12.88 20.01 11.38 19.96 11.07C20.51 11.07 21.95 10.64 21.95 9.44C21.95 8.75 21.39 8.19 20.71 8.19C19.31 8.19 18.16 10.63 17.57 12.11C17.57 11.14 17.88 9.62 18.49 8.11C20.15 7.11 21.35 5.08 21.35 3.79C21.35 3.29 21.17 2.88 20.92 2.88C19.92 2.88 16.67 9.07 16.67 12.00C16.67 12.64 16.69 13.31 17.16 13.31C17.33 13.31 17.54 13.23 17.64 13.06C17.81 12.75 18.79 8.92 20.44 8.92C20.80 8.92 21.14 9.16 21.14 9.55C21.14 10.50 19.77 10.89 19.35 10.89ZM20.83 4.02C20.86 4.02 20.87 4.05 20.87 4.14C20.87 4.86 20.02 6.51 18.73 7.55C19.54 5.67 20.55 4.02 20.83 4.02ZM22.60 11.76C22.60 12.60 23.03 13.59 24.35 13.59C25.14 13.59 25.84 13.23 26.14 12.43C26.98 12.31 27.75 11.79 28.10 10.77L27.97 10.63C27.43 11.68 26.85 12.10 26.21 12.21C26.26 12.00 26.29 11.77 26.29 11.52C26.29 10.23 25.56 9.07 25.56 8.15C25.56 7.83 25.65 7.63 25.65 7.53C25.65 7.43 25.58 7.35 25.42 7.35C25.16 7.35 24.88 7.62 24.88 8.30L24.88 8.47C24.53 9.21 24.05 9.88 23.49 10.50C23.34 10.67 22.60 10.65 22.60 11.76ZM25.38 11.54C25.38 11.82 25.35 12.01 25.33 12.19C24.47 12.01 23.87 11.42 23.59 10.82C24.01 10.40 24.51 9.72 24.95 9.00C25.09 9.77 25.38 10.65 25.38 11.54ZM24.37 13.10C23.65 13.10 23.23 12.42 23.23 11.75C23.23 11.45 23.31 11.27 23.53 11.26C23.83 11.73 24.47 12.26 25.26 12.42C25.05 13.03 24.60 13.10 24.37 13.10Z"></path></g><!----><g data-v-423bf9ae="" id="6a05276b-3588-4a94-a1d4-09f3ef623ea1" transform="matrix(2.8125,0,0,2.8125,0,0)" stroke="none" fill="black"><path d="M15.965 16.258l.707-.707 10.39 10.39-.707.707z"></path><path d="M4.935 26.357L26.018 5.274l.707.707L5.642 27.065z"></path><path d="M31 1v4.194h-4.194V1H31m1-1h-6.194v6.194H32V0zM31 26.806V31h-4.194v-4.194H31m1-1h-6.194V32H32v-6.194zM5.194 26.806V31H1v-4.194h4.194m1-1H0V32h6.194v-6.194z"></path></g><!----><g data-v-423bf9ae="" id="6979348b-7946-487d-aed1-17e700f00bff" fill="black" transform="matrix(0.41501747232606323,0,0,0.41501747232606323,109.84229279300911,58.86285358342742)"><path d="M0.42 3.64L0.38 3.08L4.16 3.08L4.16 3.08Q5.48 3.08 6.34 3.19L6.34 3.19L6.34 3.19Q7.16 3.29 7.85 3.69L7.85 3.69L7.85 3.69Q8.80 4.27 9.31 5.24L9.31 5.24L9.31 5.24Q9.80 6.21 9.80 7.39L9.80 7.39L9.80 7.39Q9.80 8.05 9.66 8.65L9.66 8.65L9.66 8.65Q9.50 9.29 9.11 9.98L9.11 9.98L9.11 9.98Q8.68 10.73 8.12 11.21L8.12 11.21L8.12 11.21Q7.49 11.76 6.52 12.08L6.52 12.08L6.52 12.08Q5.52 12.41 4.25 12.41L4.25 12.41L0.63 12.41L0.62 11.87L0.99 11.87L0.99 11.87Q1.51 11.87 1.61 11.79L1.61 11.79L1.61 11.79Q1.72 11.70 1.72 11.25L1.72 11.25L1.72 4.14L1.72 4.14Q1.72 3.77 1.63 3.71L1.63 3.71L1.63 3.71Q1.52 3.64 1.00 3.64L1.00 3.64L0.42 3.64ZM2.86 4.39L2.86 11.22L2.86 11.22Q2.86 11.67 3.02 11.77L3.02 11.77L3.02 11.77Q3.18 11.87 4.05 11.87L4.05 11.87L4.05 11.87Q5.10 11.87 5.89 11.61L5.89 11.61L5.89 11.61Q6.75 11.35 7.18 10.99L7.18 10.99L7.18 10.99Q7.68 10.58 7.98 10.05L7.98 10.05L7.98 10.05Q8.29 9.52 8.42 8.96L8.42 8.96L8.42 8.96Q8.54 8.41 8.54 7.82L8.54 7.82L8.54 7.82Q8.54 7.03 8.27 6.34L8.27 6.34L8.27 6.34Q8.00 5.65 7.48 5.05L7.48 5.05L7.48 5.05Q6.95 4.46 6.04 4.09L6.04 4.09L6.04 4.09Q5.11 3.73 3.95 3.73L3.95 3.73L3.43 3.73L3.43 3.73Q3.07 3.73 2.97 3.85L2.97 3.85L2.97 3.85Q2.86 3.99 2.86 4.39L2.86 4.39ZM18.16 7.83L18.16 7.83L18.16 7.83Q18.16 6.62 18.56 5.68L18.56 5.68L18.56 5.68Q18.98 4.72 19.67 4.12L19.67 4.12L19.67 4.12Q20.36 3.51 21.22 3.19L21.22 3.19L21.22 3.19Q22.06 2.88 23.01 2.88L23.01 2.88L23.01 2.88Q24.27 2.88 25.32 3.40L25.32 3.40L25.32 3.40Q26.40 3.93 27.11 5.07L27.11 5.07L27.11 5.07Q27.81 6.17 27.82 7.75L27.82 7.75L27.82 7.75Q27.82 8.70 27.51 9.54L27.51 9.54L27.51 9.54Q27.20 10.38 26.60 11.10L26.60 11.10L26.60 11.10Q25.99 11.81 25.05 12.22L25.05 12.22L25.05 12.22Q24.09 12.63 22.90 12.64L22.90 12.64L22.90 12.64Q21.77 12.64 20.83 12.23L20.83 12.23L20.83 12.23Q19.89 11.83 19.33 11.14L19.33 11.14L19.33 11.14Q18.76 10.45 18.46 9.60L18.46 9.60L18.46 9.60Q18.16 8.72 18.16 7.83ZM19.41 7.38L19.41 7.38L19.41 7.38Q19.41 8.52 19.84 9.60L19.84 9.60L19.84 9.60Q20.25 10.64 21.18 11.33L21.18 11.33L21.18 11.33Q22.09 12.03 23.28 12.04L23.28 12.04L23.28 12.04Q24.65 12.04 25.59 11.01L25.59 11.01L25.59 11.01Q26.54 9.97 26.54 8.10L26.54 8.10L26.54 8.10Q26.54 5.99 25.38 4.72L25.38 4.72L25.38 4.72Q24.23 3.46 22.72 3.45L22.72 3.45L22.72 3.45Q22.20 3.45 21.65 3.65L21.65 3.65L21.65 3.65Q21.11 3.85 20.60 4.25L20.60 4.25L20.60 4.25Q20.06 4.68 19.74 5.48L19.74 5.48L19.74 5.48Q19.41 6.27 19.41 7.38ZM36.31 3.64L36.07 3.64L36.07 3.08L39.18 3.08L39.16 3.64L38.86 3.64L38.86 3.64Q38.03 3.64 38.03 3.94L38.03 3.94L38.03 3.94Q38.03 4.03 38.06 4.09L38.06 4.09L40.48 10.76L42.79 4.85L42.69 4.57L42.69 4.57Q42.66 4.52 42.64 4.44L42.64 4.44L42.64 4.44Q42.62 4.36 42.60 4.31L42.60 4.31L42.60 4.31Q42.58 4.25 42.57 4.22L42.57 4.22L42.57 4.22Q42.54 4.16 42.44 3.96L42.44 3.96L42.44 3.96Q42.36 3.80 42.25 3.71L42.25 3.71L42.25 3.71Q42.16 3.64 41.99 3.64L41.99 3.64L41.31 3.64L41.31 3.08L44.64 3.08L44.64 3.64L43.90 3.64L43.90 3.64Q43.67 3.64 43.61 3.68L43.61 3.68L43.61 3.68Q43.54 3.72 43.53 3.86L43.53 3.86L43.53 3.86Q43.53 4.00 43.78 4.76L43.78 4.76L45.83 10.72L48.32 4.18L48.32 4.18Q48.38 4.01 48.38 3.94L48.38 3.94L48.38 3.94Q48.38 3.75 48.21 3.69L48.21 3.69L48.21 3.69Q48.05 3.64 47.69 3.64L47.69 3.64L47.33 3.64L47.33 3.08L49.72 3.08L49.74 3.64L49.57 3.64L49.57 3.64Q49.22 3.64 49.12 3.77L49.12 3.77L49.12 3.77Q49 3.96 48.75 4.60L48.75 4.60L45.66 12.64L45.42 12.64L43.05 5.64L40.33 12.63L40.11 12.63L37.13 4.52L37.13 4.52Q36.92 3.96 36.76 3.79L36.76 3.79L36.76 3.79Q36.60 3.63 36.31 3.64L36.31 3.64ZM57.48 3.64L57.47 3.08L59.64 3.08L65.38 10.48L65.38 4.14L65.38 4.14Q65.38 3.81 65.23 3.72L65.23 3.72L65.23 3.72Q65.07 3.64 64.61 3.64L64.61 3.64L64.12 3.64L64.15 3.08L67.13 3.08L67.13 3.64L66.81 3.64L66.81 3.64Q66.34 3.64 66.19 3.75L66.19 3.75L66.19 3.75Q66.04 3.86 66.04 4.25L66.04 4.25L66.04 12.32L66.04 12.47L66.04 12.47Q66.04 12.52 66.03 12.57L66.03 12.57L66.03 12.57Q66.01 12.61 65.98 12.64L65.98 12.64L65.98 12.64Q65.97 12.65 65.91 12.65L65.91 12.65L65.72 12.65L65.66 12.65L65.63 12.65L65.60 12.64L65.60 12.64Q65.58 12.64 65.56 12.63L65.56 12.63L65.56 12.63Q65.55 12.61 65.55 12.60L65.55 12.60L65.55 12.60Q65.55 12.58 65.54 12.57L65.54 12.57L65.54 12.57Q65.51 12.54 65.48 12.50L65.48 12.50L65.48 12.50Q65.47 12.48 65.45 12.45L65.45 12.45L65.45 12.45Q65.43 12.41 65.41 12.40L65.41 12.40L59.31 4.56L59.38 11.22L59.38 11.22Q59.38 11.67 59.54 11.77L59.54 11.77L59.54 11.77Q59.70 11.87 60.41 11.87L60.41 11.87L60.65 11.87L60.65 12.41L57.71 12.41L57.71 11.87L58.13 11.87L58.13 11.87Q58.51 11.87 58.62 11.76L58.62 11.76L58.62 11.76Q58.71 11.66 58.72 11.25L58.72 11.25L58.72 3.80L58.58 3.64L57.48 3.64ZM75.36 3.64L74.87 3.64L74.88 3.08L78.47 3.08L78.47 3.64L77.83 3.64L77.83 3.64Q77.46 3.64 77.35 3.72L77.35 3.72L77.35 3.72Q77.23 3.80 77.23 4.16L77.23 4.16L77.23 11.22L77.23 11.22Q77.23 11.57 77.32 11.67L77.32 11.67L77.32 11.67Q77.40 11.77 77.70 11.77L77.70 11.77L77.70 11.77Q80.57 11.74 81.22 11.63L81.22 11.63L81.22 11.63Q81.44 11.61 81.52 11.39L81.52 11.39L81.52 11.39Q81.60 11.17 81.80 10.05L81.80 10.05L82.29 10.08L81.83 12.41L75.07 12.41L75.05 11.87L75.44 11.87L75.44 11.87Q75.95 11.87 76.02 11.80L76.02 11.80L76.02 11.80Q76.10 11.72 76.10 11.33L76.10 11.33L76.10 4.09L76.10 4.09Q76.10 3.80 75.95 3.72L75.95 3.72L75.95 3.72Q75.80 3.64 75.36 3.64L75.36 3.64ZM90.41 7.83L90.41 7.83L90.41 7.83Q90.41 6.62 90.81 5.68L90.81 5.68L90.81 5.68Q91.23 4.72 91.92 4.12L91.92 4.12L91.92 4.12Q92.61 3.51 93.47 3.19L93.47 3.19L93.47 3.19Q94.31 2.88 95.26 2.88L95.26 2.88L95.26 2.88Q96.52 2.88 97.57 3.40L97.57 3.40L97.57 3.40Q98.65 3.93 99.36 5.07L99.36 5.07L99.36 5.07Q100.06 6.17 100.06 7.75L100.06 7.75L100.06 7.75Q100.06 8.70 99.76 9.54L99.76 9.54L99.76 9.54Q99.45 10.38 98.84 11.10L98.84 11.10L98.84 11.10Q98.24 11.81 97.30 12.22L97.30 12.22L97.30 12.22Q96.34 12.63 95.15 12.64L95.15 12.64L95.15 12.64Q94.01 12.64 93.08 12.23L93.08 12.23L93.08 12.23Q92.14 11.83 91.58 11.14L91.58 11.14L91.58 11.14Q91.01 10.45 90.71 9.60L90.71 9.60L90.71 9.60Q90.41 8.72 90.41 7.83ZM91.66 7.38L91.66 7.38L91.66 7.38Q91.66 8.52 92.09 9.60L92.09 9.60L92.09 9.60Q92.50 10.64 93.43 11.33L93.43 11.33L93.43 11.33Q94.34 12.03 95.53 12.04L95.53 12.04L95.53 12.04Q96.90 12.04 97.84 11.01L97.84 11.01L97.84 11.01Q98.79 9.97 98.79 8.10L98.79 8.10L98.79 8.10Q98.79 5.99 97.62 4.72L97.62 4.72L97.62 4.72Q96.48 3.46 94.96 3.45L94.96 3.45L94.96 3.45Q94.45 3.45 93.90 3.65L93.90 3.65L93.90 3.65Q93.36 3.85 92.85 4.25L92.85 4.25L92.85 4.25Q92.31 4.68 91.98 5.48L91.98 5.48L91.98 5.48Q91.66 6.27 91.66 7.38ZM108.19 12.41L108.18 11.87L108.35 11.87L108.35 11.87Q108.74 11.87 108.87 11.73L108.87 11.73L108.87 11.73Q108.99 11.57 109.33 10.83L109.33 10.83L110.24 8.82L110.81 7.53L110.81 7.53Q111.08 6.97 111.12 6.86L111.12 6.86L111.12 6.86Q111.19 6.70 111.24 6.60L111.24 6.60L111.24 6.60Q111.29 6.51 111.30 6.45L111.30 6.45L111.40 6.21L112.83 2.74L113.12 2.74L113.12 2.74Q113.98 4.98 116.16 10.25L116.16 10.25L116.16 10.25Q116.61 11.34 116.81 11.64L116.81 11.64L116.81 11.64Q116.94 11.87 117.38 11.87L117.38 11.87L117.59 11.87L117.58 12.41L114.39 12.41L114.40 11.87L114.82 11.87L114.82 11.87Q115.43 11.87 115.43 11.70L115.43 11.70L115.43 11.70Q115.43 11.63 115.29 11.27L115.29 11.27L114.26 8.72L111.01 8.72L109.90 11.18L109.90 11.18Q109.76 11.50 109.76 11.63L109.76 11.63L109.76 11.63Q109.76 11.79 109.86 11.83L109.86 11.83L109.86 11.83Q109.96 11.87 110.34 11.87L110.34 11.87L110.91 11.87L110.91 12.41L108.19 12.41ZM112.69 4.79L111.28 8.10L114.02 8.10L112.69 4.79ZM125.36 3.64L125.32 3.08L129.10 3.08L129.10 3.08Q130.42 3.08 131.29 3.19L131.29 3.19L131.29 3.19Q132.11 3.29 132.80 3.69L132.80 3.69L132.80 3.69Q133.75 4.27 134.26 5.24L134.26 5.24L134.26 5.24Q134.75 6.21 134.75 7.39L134.75 7.39L134.75 7.39Q134.75 8.05 134.61 8.65L134.61 8.65L134.61 8.65Q134.45 9.29 134.06 9.98L134.06 9.98L134.06 9.98Q133.63 10.73 133.07 11.21L133.07 11.21L133.07 11.21Q132.44 11.76 131.47 12.08L131.47 12.08L131.47 12.08Q130.46 12.41 129.19 12.41L129.19 12.41L125.58 12.41L125.56 11.87L125.94 11.87L125.94 11.87Q126.46 11.87 126.56 11.79L126.56 11.79L126.56 11.79Q126.67 11.70 126.67 11.25L126.67 11.25L126.67 4.14L126.67 4.14Q126.67 3.77 126.57 3.71L126.57 3.71L126.57 3.71Q126.46 3.64 125.95 3.64L125.95 3.64L125.36 3.64ZM127.80 4.39L127.80 11.22L127.80 11.22Q127.80 11.67 127.97 11.77L127.97 11.77L127.97 11.77Q128.13 11.87 128.99 11.87L128.99 11.87L128.99 11.87Q130.05 11.87 130.84 11.61L130.84 11.61L130.84 11.61Q131.69 11.35 132.13 10.99L132.13 10.99L132.13 10.99Q132.62 10.58 132.93 10.05L132.93 10.05L132.93 10.05Q133.23 9.52 133.36 8.96L133.36 8.96L133.36 8.96Q133.49 8.41 133.49 7.82L133.49 7.82L133.49 7.82Q133.49 7.03 133.22 6.34L133.22 6.34L133.22 6.34Q132.95 5.65 132.43 5.05L132.43 5.05L132.43 5.05Q131.89 4.46 130.98 4.09L130.98 4.09L130.98 4.09Q130.06 3.73 128.90 3.73L128.90 3.73L128.38 3.73L128.38 3.73Q128.02 3.73 127.91 3.85L127.91 3.85L127.91 3.85Q127.80 3.99 127.80 4.39L127.80 4.39ZM152.30 3.64L152.29 3.08L159.48 3.08L159.48 3.08Q159.49 4.14 159.54 5.28L159.54 5.28L159.00 5.30L159.00 5.30Q158.98 4.66 158.93 4.25L158.93 4.25L158.93 4.25Q158.89 3.89 158.83 3.80L158.83 3.80L158.83 3.80Q158.78 3.71 158.66 3.69L158.66 3.69L158.66 3.69Q158.57 3.68 157.98 3.68L157.98 3.68L155.60 3.68L155.60 3.68Q155.05 3.68 154.91 3.77L154.91 3.77L154.91 3.77Q154.79 3.86 154.79 4.33L154.79 4.33L154.79 6.28L154.79 6.28Q154.79 6.69 154.84 6.76L154.84 6.76L154.84 6.76Q154.91 6.84 155.24 6.84L155.24 6.84L157.36 6.84L157.36 6.84Q157.73 6.84 157.81 6.74L157.81 6.74L157.81 6.74Q157.89 6.64 157.89 6.17L157.89 6.17L157.89 5.63L158.41 5.63L158.41 8.97L157.89 8.97L157.89 8.26L157.89 8.26Q157.89 7.68 157.81 7.57L157.81 7.57L157.81 7.57Q157.73 7.46 157.39 7.46L157.39 7.46L155.29 7.46L155.29 7.46Q154.96 7.46 154.87 7.54L154.87 7.54L154.87 7.54Q154.79 7.63 154.79 7.89L154.79 7.89L154.79 11.20L154.79 11.20Q154.79 11.60 154.85 11.73L154.85 11.73L154.85 11.73Q154.94 11.87 155.20 11.87L155.20 11.87L156.14 11.87L156.14 12.41L152.54 12.41L152.54 11.87L152.95 11.87L152.95 11.87Q153.46 11.87 153.56 11.79L153.56 11.79L153.56 11.79Q153.65 11.70 153.65 11.33L153.65 11.33L153.65 4.24L153.65 4.24Q153.65 3.79 153.48 3.71L153.48 3.71L153.48 3.71Q153.34 3.64 152.30 3.64L152.30 3.64ZM167.92 3.64L167.54 3.64L167.55 3.08L170.77 3.08L170.77 3.08Q171.90 3.08 172.50 3.21L172.50 3.21L172.50 3.21Q173.15 3.37 173.61 3.75L173.61 3.75L173.61 3.75Q174.62 4.57 174.62 5.71L174.62 5.71L174.62 5.71Q174.62 6.43 174.15 7.04L174.15 7.04L174.15 7.04Q173.65 7.66 172.62 7.92L172.62 7.92L175.31 11.49L175.31 11.49Q175.62 11.87 175.91 11.87L175.91 11.87L176.51 11.87L176.54 12.41L174.51 12.41L171.51 8.10L171.34 8.10L171.34 8.10Q171.30 8.10 171.25 8.11L171.25 8.11L171.25 8.11Q171.19 8.11 171.18 8.11L171.18 8.11L171.18 8.11Q170.30 8.11 169.90 8.03L169.90 8.03L169.90 11.46L169.90 11.46Q169.90 11.76 170.04 11.81L170.04 11.81L170.04 11.81Q170.17 11.87 170.87 11.87L170.87 11.87L171.58 11.87L171.55 12.41L167.83 12.41L167.83 11.87L168.15 11.87L168.15 11.87Q168.62 11.87 168.68 11.81L168.68 11.81L168.68 11.81Q168.77 11.74 168.77 11.46L168.77 11.46L168.77 4.14L168.77 4.14Q168.77 3.82 168.57 3.73L168.57 3.73L168.57 3.73Q168.35 3.64 167.92 3.64L167.92 3.64ZM169.90 4.28L169.90 7.57L169.90 7.57Q170.08 7.70 170.80 7.71L170.80 7.71L170.80 7.71Q172.07 7.71 172.65 7.27L172.65 7.27L172.65 7.27Q173.24 6.84 173.24 5.92L173.24 5.92L173.24 5.92Q173.24 4.92 172.46 4.27L172.46 4.27L172.46 4.27Q171.71 3.64 170.32 3.64L170.32 3.64L170.32 3.64Q170.07 3.64 169.99 3.75L169.99 3.75L169.99 3.75Q169.91 3.84 169.90 4.28L169.90 4.28ZM184.30 3.64L184.29 3.08L191.50 3.08L191.50 3.08Q191.52 4.14 191.57 5.28L191.57 5.28L191.02 5.30L191.02 5.30Q191.01 4.66 190.96 4.25L190.96 4.25L190.96 4.25Q190.91 3.89 190.86 3.80L190.86 3.80L190.86 3.80Q190.80 3.71 190.69 3.69L190.69 3.69L190.69 3.69Q190.59 3.68 190.00 3.68L190.00 3.68L187.63 3.68L187.63 3.68Q187.08 3.68 186.94 3.77L186.94 3.77L186.94 3.77Q186.81 3.86 186.81 4.33L186.81 4.33L186.81 6.28L186.81 6.28Q186.81 6.69 186.87 6.76L186.87 6.76L186.87 6.76Q186.94 6.84 187.28 6.84L187.28 6.84L189.39 6.84L189.39 6.84Q189.75 6.84 189.83 6.73L189.83 6.73L189.83 6.73Q189.92 6.63 189.92 6.14L189.92 6.14L189.92 5.61L190.44 5.63L190.44 8.97L189.92 8.97L189.92 8.24L189.92 8.24Q189.92 7.66 189.85 7.57L189.85 7.57L189.85 7.57Q189.77 7.46 189.42 7.46L189.42 7.46L187.32 7.46L187.32 7.46Q186.98 7.46 186.90 7.54L186.90 7.54L186.90 7.54Q186.81 7.63 186.81 7.89L186.81 7.89L186.81 11.20L186.81 11.20Q186.81 11.57 186.90 11.67L186.90 11.67L186.90 11.67Q186.98 11.77 187.26 11.77L187.26 11.77L187.26 11.77Q190.18 11.75 190.70 11.69L190.70 11.69L190.70 11.69Q191.22 11.63 191.30 11.38L191.30 11.38L191.31 11.36L191.32 11.35L191.54 10.17L192.02 10.25L191.67 12.41L184.57 12.41L184.57 11.87L184.94 11.87L184.94 11.87Q185.50 11.87 185.58 11.80L185.58 11.80L185.58 11.80Q185.68 11.72 185.68 11.33L185.68 11.33L185.68 4.24L185.68 4.24Q185.68 3.82 185.53 3.73L185.53 3.73L185.53 3.73Q185.36 3.64 184.70 3.64L184.70 3.64L184.30 3.64ZM199.91 3.64L199.90 3.08L207.11 3.08L207.11 3.08Q207.12 4.14 207.18 5.28L207.18 5.28L206.63 5.30L206.63 5.30Q206.62 4.66 206.56 4.25L206.56 4.25L206.56 4.25Q206.52 3.89 206.47 3.80L206.47 3.80L206.47 3.80Q206.41 3.71 206.29 3.69L206.29 3.69L206.29 3.69Q206.20 3.68 205.61 3.68L205.61 3.68L203.23 3.68L203.23 3.68Q202.69 3.68 202.54 3.77L202.54 3.77L202.54 3.77Q202.42 3.86 202.42 4.33L202.42 4.33L202.42 6.28L202.42 6.28Q202.42 6.69 202.47 6.76L202.47 6.76L202.47 6.76Q202.54 6.84 202.88 6.84L202.88 6.84L205.00 6.84L205.00 6.84Q205.36 6.84 205.44 6.73L205.44 6.73L205.44 6.73Q205.52 6.63 205.53 6.14L205.53 6.14L205.53 5.61L206.04 5.63L206.04 8.97L205.53 8.97L205.53 8.24L205.53 8.24Q205.53 7.66 205.45 7.57L205.45 7.57L205.45 7.57Q205.37 7.46 205.02 7.46L205.02 7.46L202.92 7.46L202.92 7.46Q202.59 7.46 202.50 7.54L202.50 7.54L202.50 7.54Q202.42 7.63 202.42 7.89L202.42 7.89L202.42 11.20L202.42 11.20Q202.42 11.57 202.50 11.67L202.50 11.67L202.50 11.67Q202.59 11.77 202.86 11.77L202.86 11.77L202.86 11.77Q205.78 11.75 206.31 11.69L206.31 11.69L206.31 11.69Q206.83 11.63 206.91 11.38L206.91 11.38L206.92 11.36L206.92 11.35L207.15 10.17L207.63 10.25L207.28 12.41L200.18 12.41L200.18 11.87L200.55 11.87L200.55 11.87Q201.11 11.87 201.19 11.80L201.19 11.80L201.19 11.80Q201.28 11.72 201.28 11.33L201.28 11.33L201.28 4.24L201.28 4.24Q201.28 3.82 201.13 3.73L201.13 3.73L201.13 3.73Q200.96 3.64 200.31 3.64L200.31 3.64L199.91 3.64ZM225.47 3.64L225.07 3.64L225.10 3.08L228.20 3.08L228.20 3.08Q229.94 3.08 230.72 3.75L230.72 3.75L230.72 3.75Q231.49 4.42 231.49 5.37L231.49 5.37L231.49 5.37Q231.49 6.08 230.95 6.60L230.95 6.60L230.95 6.60Q230.39 7.14 229.69 7.35L229.69 7.35L229.69 7.35Q230.77 7.57 231.31 8.34L231.31 8.34L231.31 8.34Q231.83 9.08 231.82 10.01L231.82 10.01L231.82 10.01Q231.82 11.01 231.19 11.59L231.19 11.59L231.19 11.59Q230.59 12.13 229.64 12.28L229.64 12.28L229.64 12.28Q228.72 12.41 227.17 12.41L227.17 12.41L225.19 12.41L225.19 11.87L225.61 11.87L225.61 11.87Q225.97 11.87 226.08 11.80L226.08 11.80L226.08 11.80Q226.19 11.73 226.19 11.46L226.19 11.46L226.19 4.14L226.19 4.14Q226.19 3.81 226.04 3.72L226.04 3.72L226.04 3.72Q225.91 3.64 225.47 3.64L225.47 3.64ZM227.30 7.59L227.30 7.59L227.33 11.35L227.33 11.35Q227.33 11.63 227.50 11.71L227.50 11.71L227.50 11.71Q227.66 11.80 228.24 11.80L228.24 11.80L228.24 11.80Q230.49 11.80 230.49 9.91L230.49 9.91L230.49 9.91Q230.49 9.22 230.17 8.73L230.17 8.73L230.17 8.73Q229.86 8.24 229.33 8.02L229.33 8.02L229.33 8.02Q228.74 7.75 228.31 7.68L228.31 7.68L228.31 7.68Q227.83 7.59 227.30 7.59ZM227.33 4.01L227.33 7.19L228.70 7.19L228.70 7.19Q229.36 7.19 229.78 6.66L229.78 6.66L229.78 6.66Q230.18 6.15 230.19 5.54L230.19 5.54L230.19 5.54Q230.19 4.85 229.60 4.27L229.60 4.27L229.60 4.27Q229.02 3.69 227.75 3.69L227.75 3.69L227.75 3.69Q227.33 3.69 227.33 4.01L227.33 4.01ZM240.25 7.83L240.25 7.83L240.25 7.83Q240.25 6.62 240.65 5.68L240.65 5.68L240.65 5.68Q241.07 4.72 241.76 4.12L241.76 4.12L241.76 4.12Q242.45 3.51 243.31 3.19L243.31 3.19L243.31 3.19Q244.15 2.88 245.10 2.88L245.10 2.88L245.10 2.88Q246.36 2.88 247.41 3.40L247.41 3.40L247.41 3.40Q248.49 3.93 249.20 5.07L249.20 5.07L249.20 5.07Q249.90 6.17 249.91 7.75L249.91 7.75L249.91 7.75Q249.91 8.70 249.60 9.54L249.60 9.54L249.60 9.54Q249.29 10.38 248.69 11.10L248.69 11.10L248.69 11.10Q248.08 11.81 247.15 12.22L247.15 12.22L247.15 12.22Q246.18 12.63 244.99 12.64L244.99 12.64L244.99 12.64Q243.86 12.64 242.92 12.23L242.92 12.23L242.92 12.23Q241.99 11.83 241.42 11.14L241.42 11.14L241.42 11.14Q240.85 10.45 240.56 9.60L240.56 9.60L240.56 9.60Q240.25 8.72 240.25 7.83ZM241.51 7.38L241.51 7.38L241.51 7.38Q241.51 8.52 241.94 9.60L241.94 9.60L241.94 9.60Q242.34 10.64 243.27 11.33L243.27 11.33L243.27 11.33Q244.18 12.03 245.37 12.04L245.37 12.04L245.37 12.04Q246.74 12.04 247.68 11.01L247.68 11.01L247.68 11.01Q248.63 9.97 248.63 8.10L248.63 8.10L248.63 8.10Q248.63 5.99 247.47 4.72L247.47 4.72L247.47 4.72Q246.32 3.46 244.81 3.45L244.81 3.45L244.81 3.45Q244.29 3.45 243.75 3.65L243.75 3.65L243.75 3.65Q243.20 3.85 242.70 4.25L242.70 4.25L242.70 4.25Q242.15 4.68 241.83 5.48L241.83 5.48L241.83 5.48Q241.51 6.27 241.51 7.38ZM258.41 7.83L258.41 7.83L258.41 7.83Q258.41 6.62 258.81 5.68L258.81 5.68L258.81 5.68Q259.23 4.72 259.92 4.12L259.92 4.12L259.92 4.12Q260.61 3.51 261.47 3.19L261.47 3.19L261.47 3.19Q262.31 2.88 263.26 2.88L263.26 2.88L263.26 2.88Q264.52 2.88 265.57 3.40L265.57 3.40L265.57 3.40Q266.65 3.93 267.36 5.07L267.36 5.07L267.36 5.07Q268.06 6.17 268.06 7.75L268.06 7.75L268.06 7.75Q268.06 8.70 267.76 9.54L267.76 9.54L267.76 9.54Q267.45 10.38 266.84 11.10L266.84 11.10L266.84 11.10Q266.24 11.81 265.30 12.22L265.30 12.22L265.30 12.22Q264.34 12.63 263.15 12.64L263.15 12.64L263.15 12.64Q262.01 12.64 261.08 12.23L261.08 12.23L261.08 12.23Q260.14 11.83 259.58 11.14L259.58 11.14L259.58 11.14Q259.01 10.45 258.71 9.60L258.71 9.60L258.71 9.60Q258.41 8.72 258.41 7.83ZM259.66 7.38L259.66 7.38L259.66 7.38Q259.66 8.52 260.09 9.60L260.09 9.60L260.09 9.60Q260.50 10.64 261.43 11.33L261.43 11.33L261.43 11.33Q262.34 12.03 263.53 12.04L263.53 12.04L263.53 12.04Q264.90 12.04 265.84 11.01L265.84 11.01L265.84 11.01Q266.79 9.97 266.79 8.10L266.79 8.10L266.79 8.10Q266.79 5.99 265.62 4.72L265.62 4.72L265.62 4.72Q264.48 3.46 262.96 3.45L262.96 3.45L262.96 3.45Q262.45 3.45 261.90 3.65L261.90 3.65L261.90 3.65Q261.36 3.85 260.85 4.25L260.85 4.25L260.85 4.25Q260.31 4.68 259.98 5.48L259.98 5.48L259.98 5.48Q259.66 6.27 259.66 7.38ZM276.77 3.64L276.18 3.64L276.18 3.08L279.68 3.08L279.68 3.64L279.23 3.64L279.23 3.64Q278.83 3.64 278.73 3.73L278.73 3.73L278.73 3.73Q278.62 3.84 278.62 4.28L278.62 4.28L278.62 7.50L282.71 4.18L282.71 4.18Q283.06 3.89 283.06 3.77L283.06 3.77L283.06 3.77Q283.06 3.64 282.41 3.64L282.41 3.64L281.87 3.64L281.84 3.08L285.20 3.08L285.20 3.64L284.83 3.64L284.83 3.64Q284.40 3.64 284.19 3.76L284.19 3.76L284.19 3.76Q284.02 3.86 283.14 4.55L283.14 4.55L279.97 7.08L284.20 11.49L284.20 11.49Q284.57 11.87 284.81 11.87L284.81 11.87L285.62 11.87L285.59 12.41L283.39 12.41L279.13 7.74L278.62 8.16L278.62 11.22L278.62 11.22Q278.62 11.70 278.79 11.79L278.79 11.79L278.79 11.79Q278.95 11.87 279.72 11.87L279.72 11.87L280.03 11.87L280.03 12.41L276.45 12.41L276.43 11.87L276.81 11.87L276.81 11.87Q277.31 11.87 277.40 11.79L277.40 11.79L277.40 11.79Q277.48 11.70 277.48 11.25L277.48 11.25L277.48 4.14L277.48 4.14Q277.48 3.77 277.38 3.71L277.38 3.71L277.38 3.71Q277.27 3.64 276.77 3.64L276.77 3.64ZM293.32 10.04L293.32 10.04L293.82 9.98L294 10.85L294 10.85Q294.11 11.33 294.18 11.41L294.18 11.41L294.18 11.41Q294.25 11.49 294.66 11.64L294.66 11.64L294.66 11.64Q295.50 11.95 296.39 11.95L296.39 11.95L296.39 11.95Q297.18 11.95 297.72 11.49L297.72 11.49L297.72 11.49Q298.25 11.04 298.25 10.26L298.25 10.26L298.25 10.26Q298.25 9.65 297.79 9.21L297.79 9.21L297.79 9.21Q297.32 8.76 296.46 8.30L296.46 8.30L295.89 7.98L295.89 7.98Q295.14 7.55 294.91 7.36L294.91 7.36L294.91 7.36Q294.55 7.08 294.24 6.59L294.24 6.59L294.24 6.59Q293.92 6.10 293.92 5.46L293.92 5.46L293.92 5.46Q293.92 4.39 294.77 3.68L294.77 3.68L294.77 3.68Q295.61 2.97 296.71 2.97L296.71 2.97L296.71 2.97Q296.99 2.97 297.34 3.04L297.34 3.04L297.34 3.04Q297.54 3.08 297.88 3.17L297.88 3.17L298.12 3.25L298.12 3.25Q298.21 3.25 298.25 3.16L298.25 3.16L298.25 3.16Q298.31 3.05 298.31 2.98L298.31 2.98L298.32 2.88L298.80 2.85L299.01 5.41L298.50 5.43L298.38 4.18L298.38 4.18Q297.64 3.62 296.47 3.62L296.47 3.62L296.47 3.62Q295.83 3.62 295.33 4.05L295.33 4.05L295.33 4.05Q294.85 4.47 294.85 5.12L294.85 5.12L294.85 5.12Q294.85 5.72 295.30 6.17L295.30 6.17L295.30 6.17Q295.73 6.60 296.60 7.08L296.60 7.08L297.37 7.50L297.37 7.50Q298.32 8.03 298.85 8.59L298.85 8.59L298.85 8.59Q299.39 9.15 299.39 9.92L299.39 9.92L299.39 9.92Q299.39 10.99 298.53 11.76L298.53 11.76L298.53 11.76Q297.66 12.54 296.21 12.54L296.21 12.54L296.21 12.54Q295.65 12.54 295.15 12.41L295.15 12.41L295.15 12.41Q294.64 12.29 294.59 12.29L294.59 12.29L294.59 12.29Q294.33 12.29 294.33 12.58L294.33 12.58L294.35 12.76L293.87 12.80L293.87 12.80Q293.81 12.41 293.32 10.04Z"></path></g></svg>