<svg data-v-423bf9ae="" xmlns="http://www.w3.org/2000/svg" viewBox="0 0 155.11797306640145 60" class="font"><!----><!----><!----><g data-v-423bf9ae="" id="3d2cceee-95a1-443a-b54b-3868a1e4b577" fill="white" transform="matrix(5.444646343017975,0,0,5.444646343017975,2.123412616597008,-15.680581614144934)"><path d="M1.22 9.10C2.87 8.11 4.41 5.07 4.41 3.77C4.41 3.37 4.27 2.88 3.96 2.88C2.81 2.88-0.39 9.32-0.39 12.14C-0.39 13.22 0.08 13.90 1.05 13.90C2.03 13.90 2.77 13.20 3.28 12.35C3.42 12.38 3.57 12.39 3.72 12.39C4.44 12.39 5.19 12.08 5.73 10.79L5.56 10.61C5.24 11.26 4.76 12.14 3.77 12.14C3.64 12.14 3.51 12.12 3.40 12.10C3.71 11.48 3.89 10.81 3.89 10.19C3.89 9.35 3.54 8.90 3.01 8.90C2.38 8.90 1.83 9.49 1.83 10.39C1.83 11.09 2.17 11.84 2.86 12.19C2.49 12.88 1.85 13.37 1.32 13.37C0.76 13.37 0.55 12.82 0.55 12.05C0.55 10.88 1.05 9.41 1.22 9.10ZM3.88 4.02C3.92 4.02 3.93 4.05 3.93 4.13C3.93 4.84 2.66 7.52 1.37 8.55C2.02 6.41 3.57 4.02 3.88 4.02ZM2.32 10.46C2.32 9.88 2.58 9.45 2.86 9.45C3.12 9.45 3.32 9.86 3.32 10.50C3.32 11.00 3.19 11.49 3.00 11.91C2.51 11.59 2.32 10.96 2.32 10.46ZM11.21 10.64C10.85 11.41 10.50 11.70 10.11 11.70C9.62 11.70 9.13 11.26 9.13 10.54C9.13 9.80 9.67 9.13 9.67 8.78C9.67 8.61 9.55 8.23 9.20 8.23C9.16 8.23 9.13 8.23 9.10 8.25C9.02 8.08 8.85 7.95 8.50 7.95C6.83 7.95 5.11 10.63 5.11 12.11C5.11 12.82 5.52 13.33 6.23 13.33C7.21 13.33 8.09 12.38 8.68 11.00C8.96 11.65 9.48 11.98 10.00 11.98C10.46 11.98 10.99 11.72 11.40 10.78ZM6.54 12.73C6.20 12.73 6.01 12.45 6.01 12.01C6.01 10.95 7.14 8.50 8.72 8.50C8.57 8.74 8.46 9.14 8.46 9.77C8.46 10.09 8.48 10.35 8.54 10.57C8.04 11.77 7.17 12.73 6.54 12.73ZM16.88 10.64C16.52 11.41 16.17 11.70 15.78 11.70C15.29 11.70 14.80 11.26 14.80 10.54C14.80 9.80 15.34 9.13 15.34 8.78C15.34 8.61 15.22 8.23 14.87 8.23C14.83 8.23 14.80 8.23 14.77 8.25C14.69 8.08 14.52 7.95 14.17 7.95C12.50 7.95 10.78 10.63 10.78 12.11C10.78 12.82 11.19 13.33 11.90 13.33C12.88 13.33 13.76 12.38 14.35 11.00C14.63 11.65 15.15 11.98 15.67 11.98C16.13 11.98 16.66 11.72 17.07 10.78ZM12.21 12.73C11.87 12.73 11.68 12.45 11.68 12.01C11.68 10.95 12.81 8.50 14.39 8.50C14.24 8.74 14.13 9.14 14.13 9.77C14.13 10.09 14.15 10.35 14.21 10.57C13.71 11.77 12.84 12.73 12.21 12.73ZM19.35 10.89C19.35 11.75 19.71 13.41 20.78 13.41C21.76 13.41 22.86 12.11 23.27 10.74L23.13 10.60C22.55 11.87 21.85 12.88 21.06 12.88C20.31 12.88 20.01 11.38 19.96 11.07C20.51 11.07 21.95 10.64 21.95 9.44C21.95 8.75 21.39 8.19 20.71 8.19C19.31 8.19 18.16 10.63 17.57 12.11C17.57 11.14 17.88 9.62 18.49 8.11C20.15 7.11 21.35 5.08 21.35 3.79C21.35 3.29 21.17 2.88 20.92 2.88C19.92 2.88 16.67 9.07 16.67 12.00C16.67 12.64 16.69 13.31 17.16 13.31C17.33 13.31 17.54 13.23 17.64 13.06C17.81 12.75 18.79 8.92 20.44 8.92C20.80 8.92 21.14 9.16 21.14 9.55C21.14 10.50 19.77 10.89 19.35 10.89ZM20.83 4.02C20.86 4.02 20.87 4.05 20.87 4.14C20.87 4.86 20.02 6.51 18.73 7.55C19.54 5.67 20.55 4.02 20.83 4.02ZM22.60 11.76C22.60 12.60 23.03 13.59 24.35 13.59C25.14 13.59 25.84 13.23 26.14 12.43C26.98 12.31 27.75 11.79 28.10 10.77L27.97 10.63C27.43 11.68 26.85 12.10 26.21 12.21C26.26 12.00 26.29 11.77 26.29 11.52C26.29 10.23 25.56 9.07 25.56 8.15C25.56 7.83 25.65 7.63 25.65 7.53C25.65 7.43 25.58 7.35 25.42 7.35C25.16 7.35 24.88 7.62 24.88 8.30L24.88 8.47C24.53 9.21 24.05 9.88 23.49 10.50C23.34 10.67 22.60 10.65 22.60 11.76ZM25.38 11.54C25.38 11.82 25.35 12.01 25.33 12.19C24.47 12.01 23.87 11.42 23.59 10.82C24.01 10.40 24.51 9.72 24.95 9.00C25.09 9.77 25.38 10.65 25.38 11.54ZM24.37 13.10C23.65 13.10 23.23 12.42 23.23 11.75C23.23 11.45 23.31 11.27 23.53 11.26C23.83 11.73 24.47 12.26 25.26 12.42C25.05 13.03 24.60 13.10 24.37 13.10Z"></path></g><!----><!----></svg>